<svg width="25" height="23.233" xmlns="http://www.w3.org/2000/svg">

 <g>
  <title>background</title>
  <rect fill="none" id="canvas_background" height="25.233" width="27" y="-1" x="-1"/>
 </g>
 <g>
  <title>Layer 1</title>
  <g stroke="null" id="cloud-envelope-closed">
   <g stroke="null" id="cloud-envelope-closed_1_">
    <path stroke="null" id="svg_1" fill="#ffffff" d="m20.193797,7.510899c-0.209742,0 -0.414759,0.021846 -0.61744,0.053005c-0.177844,-3.787699 -2.883155,-6.795561 -6.1949,-6.795561c-2.703217,0 -4.762356,2.281256 -5.613594,5.077154c-0.453669,-0.138073 -1.169819,-0.488958 -1.660596,-0.488958c-3.090072,0 -5.59504,2.903376 -5.59504,6.486393c0,3.446863 2.320354,6.257042 5.248993,6.465281l0,2.174964c0,0.421445 0.222257,0.799594 0.560756,0.954602c0.047821,0.02241 0.097688,0.039288 0.147603,0.051481c0.161628,0.283993 0.437988,0.460451 0.738843,0.460451l11.13023,0c0.351063,0 0.668134,-0.240414 0.809942,-0.613032c0.025615,-0.067512 0.044656,-0.13717 0.056976,-0.207731c0.249917,-0.185885 0.406627,-0.509223 0.406627,-0.863494l0,-1.936976c0.232483,0 0.431219,0 0.581647,0c2.577381,0 4.666518,-2.421079 4.666518,-5.408902c0,-2.98692 -2.089186,-5.408676 -4.666567,-5.408676zm-1.973723,3.967319l-5.405946,5.359566l-5.628982,-5.359566l11.034928,0zm-11.573429,9.005015l0,-2.154698l0,-6.359045l3.883993,3.699075l-2.146113,2.65997l-1.737879,2.154698zm0.561729,0.439904l2.094737,-2.594602l1.747522,-2.165875l1.55536,1.48234l0.217825,0.20615l0.213102,-0.211287l1.51908,-1.50712l1.73374,2.195849l2.048913,2.594602l-11.130279,0l0,-0.000056zm11.518352,-0.657626l-1.528966,-1.936976l-2.131991,-2.701121l3.660957,-3.630942l0,6.332062l0,1.936976z"/>
   </g>
  </g>
  <g id="Layer_1"/>
 </g>
</svg>