<svg width="23.999999999999996" height="23.999999999999996" xmlns="http://www.w3.org/2000/svg">

 <g>
  <title>background</title>
  <rect fill="none" id="canvas_background" height="402" width="582" y="-1" x="-1"/>
 </g>
 <g>
  <title>Layer 1</title>
  <path fill="#ffffff" id="svg_1" fill-rule="evenodd" d="m22,20.998l-1,0c0,0 -1,0 -1,-1l0,-2.498c0,-0.277 -0.224,-0.5 -0.5,-0.5s-0.5,0.223 -0.5,0.5l-0.008,4.295c0,0.609 -2.01,2.205 -6.492,2.205s-6.492,-1.596 -6.492,-2.205l-0.008,-4.295c0,-0.277 -0.224,-0.5 -0.5,-0.5s-0.5,0.223 -0.5,0.5l0,2.498c0,1 -1,1 -1,1l-1,0c0,0 -1,0 -1,-1l0,-4.248c0,-2.922 2.892,-5.401 6.93,-6.341c0,0 1.234,1.107 3.57,1.107s3.57,-1.107 3.57,-1.107c4.038,0.94 6.93,3.419 6.93,6.341l0,4.248c0,1 -1,1 -1,1zm-9.523,-11.998c-2.485,0 -4.5,-2.015 -4.5,-4.5s2.014,-4.5 4.5,-4.5s4.5,2.015 4.5,4.5s-2.015,4.5 -4.5,4.5z" clip-rule="evenodd"/>
 </g>
</svg>