<svg width="24" height="22.000000000000004" xmlns="http://www.w3.org/2000/svg">
 <g>
  <title>background</title>
  <rect x="-1" y="-1" width="26" height="24" id="canvas_background" fill="none"/>
 </g>

 <g>
  <title>Layer 1</title>
  <path stroke="null" clip-rule="evenodd" d="m7.781563,16.104892c0.327862,0.89764 1.310323,1.36126 2.199418,1.03379l4.292872,-1.476287l0.608103,2.540145c0.131856,0.612555 1.004235,1.170173 1.64652,1.170173l2.44604,0c0.467819,0 0.850886,0.383157 0.850886,0.851086l0,0.212772c0,0.587171 0.476668,1.063717 1.063607,1.063717c0.587033,0 1.063467,-0.476546 1.063467,-1.063717l0,-2.127528l0,-2.127762c0,-0.587171 -0.476434,-1.06367 -1.063467,-1.06367c-0.586939,0 -1.063607,0.4765 -1.063607,1.06367l0,0.212772c0,0.467929 -0.383067,0.851086 -0.850886,0.851086l-1.276189,0c-0.467819,0 -0.736261,-0.395616 -0.850886,-0.851086l-0.378806,-1.485139l4.356319,-1.497644c0.889141,-0.327471 1.348625,-1.323558 1.025259,-2.225648l-3.224583,-8.969705c-0.323273,-0.897781 -1.306203,-1.361729 -2.195203,-1.034071l-10.844114,3.72746c-0.889001,0.327845 -1.348532,1.323417 -1.024884,2.225648l0.731625,2.038261l-1.607843,0.591292l-0.076838,-0.204248c-0.199845,-0.561646 -0.816704,-0.850993 -1.369743,-0.646839c-0.55744,0.204294 -0.842458,0.825702 -0.642238,1.391469l1.905644,5.298072c0.199845,0.566001 0.816798,0.855208 1.37391,0.650679c0.553366,-0.20851 0.842504,-0.829495 0.638071,-1.391188l-0.15288,-0.383157l0.638211,-0.357351l0.782617,-0.200267l0.999599,2.183215zm7.364294,-11.412573c0,-0.587124 0.476434,-1.063764 1.063654,-1.063764c0.586939,0 1.06342,0.47664 1.06342,1.063764c0,0.587264 -0.476481,1.063764 -1.06342,1.063764c-0.58722,0 -1.063654,-0.4765 -1.063654,-1.063764z" fill="#ffffff" fill-rule="evenodd" id="svg_1"/>
 </g>
</svg>