<svg width="24" height="24" xmlns="http://www.w3.org/2000/svg">

 <g>
  <title>background</title>
  <rect fill="none" id="canvas_background" height="402" width="582" y="-1" x="-1"/>
 </g>
 <g>
  <title>Layer 1</title>
  <g id="svg_1">
   <g id="svg_2">
    <path fill="#ffffff" id="svg_3" d="m23.244,17.009l-22.494,0c-0.413,0 -0.75,0.36 -0.75,0.801l0,3.421c0,0.423 0.337,0.769 0.75,0.769l22.494,0c0.414,0 0.75,-0.346 0.75,-0.77l0,-3.42c0,-0.441 -0.336,-0.801 -0.75,-0.801zm0,-8l-22.494,0c-0.413,0 -0.75,0.36 -0.75,0.801l0,3.421c0,0.424 0.337,0.769 0.75,0.769l22.494,0c0.414,0 0.75,-0.345 0.75,-0.769l0,-3.421c0,-0.441 -0.336,-0.801 -0.75,-0.801zm0,-8l-22.494,0c-0.413,0 -0.75,0.36 -0.75,0.801l0,3.42c0,0.423 0.337,0.769 0.75,0.769l22.494,0c0.414,0 0.75,-0.346 0.75,-0.769l0,-3.42c0,-0.441 -0.336,-0.801 -0.75,-0.801z"/>
   </g>
  </g>
 </g>
</svg>